<?xml version="1.0" encoding="UTF-8" standalone="no"?>
<!-- Created with Inkscape (http://www.inkscape.org/) -->

<svg
   version="1.1"
   id="svg2"
   width="768"
   height="332"
   viewBox="0 0 768 332"
   sodipodi:docname="GRUD.eps"
   xmlns:inkscape="http://www.inkscape.org/namespaces/inkscape"
   xmlns:sodipodi="http://sodipodi.sourceforge.net/DTD/sodipodi-0.dtd"
   xmlns="http://www.w3.org/2000/svg"
   xmlns:svg="http://www.w3.org/2000/svg">
  <defs
     id="defs6">
    <clipPath
       clipPathUnits="userSpaceOnUse"
       id="clipPath20">
      <path
         d="M 0,20 H 5760 V 2490 H 0 Z"
         id="path18" />
    </clipPath>
  </defs>
  <sodipodi:namedview
     id="namedview4"
     pagecolor="#ffffff"
     bordercolor="#000000"
     borderopacity="0.25"
     inkscape:showpageshadow="2"
     inkscape:pageopacity="0.0"
     inkscape:pagecheckerboard="0"
     inkscape:deskcolor="#d1d1d1" />
  <g
     id="g8"
     inkscape:groupmode="layer"
     inkscape:label="ink_ext_XXXXXX"
     transform="matrix(1.3333333,0,0,-1.3333333,0,332)">
    <g
       id="g10"
       transform="scale(0.1)">
      <path
         d="M 0,6.01953 H 5760 V 2489.9995 H 0 Z"
         style="fill:#ffffff;fill-opacity:1;fill-rule:nonzero;stroke:none"
         id="path12" />
      <g
         id="g14">
        <g
           id="g16"
           clip-path="url(#clipPath20)">
          <path
             d="m 5317.19,1471.21 h 432.027 v 215.98 H 5317.19 Z"
             style="fill:none;stroke:#000000;stroke-width:7.2;stroke-linecap:butt;stroke-linejoin:miter;stroke-miterlimit:10;stroke-dasharray:none;stroke-opacity:1"
             id="path22" />
          <g
             id="g24"
             transform="scale(10)">
            <text
               xml:space="preserve"
               transform="matrix(1,0,0,-1,544.073,155.4)"
               style="font-variant:normal;font-weight:normal;font-size:8.64px;font-family:'DejaVu Sans';-inkscape-font-specification:DejaVuSans;writing-mode:lr-tb;fill:#000000;fill-opacity:1;fill-rule:nonzero;stroke:none"
               id="text28"><tspan
                 x="0 6.2382474 11.042088 15.854424"
                 y="0"
                 sodipodi:role="line"
                 id="tspan26">Real</tspan></text>
          </g>
          <path
             d="m 763.199,2119.22 h 288.011 v -183.63 c -48.01,38.9 -96.011,38.9 -144.019,0 -47.972,-38.87 -95.98,-38.87 -143.992,0 z"
             style="fill:#ffffff;fill-opacity:1;fill-rule:nonzero;stroke:none"
             id="path30" />
          <path
             d="m 763.199,2119.22 h 288.011 v -183.63 c -48.01,38.9 -96.011,38.9 -144.019,0 -47.972,-38.87 -95.98,-38.87 -143.992,0 z"
             style="fill:none;stroke:#000000;stroke-width:7.2;stroke-linecap:butt;stroke-linejoin:miter;stroke-miterlimit:10;stroke-dasharray:none;stroke-opacity:1"
             id="path32" />
          <path
             d="m 1976.41,31.2109 h 863.98 v 2160 h -863.98 z"
             style="fill:#ffffff;fill-opacity:1;fill-rule:nonzero;stroke:none"
             id="path34" />
          <path
             d="m 1976.41,31.2109 h 863.98 v 2160 h -863.98 z"
             style="fill:none;stroke:#000000;stroke-width:7.2;stroke-linecap:butt;stroke-linejoin:miter;stroke-miterlimit:10;stroke-dasharray:none;stroke-opacity:1"
             id="path36" />
          <g
             id="g38"
             transform="scale(10)">
            <text
               xml:space="preserve"
               transform="matrix(1,0,0,-1,221.018,113.64)"
               style="font-variant:normal;font-weight:normal;font-size:8.64px;font-family:'DejaVu Sans';-inkscape-font-specification:DejaVuSans;writing-mode:lr-tb;fill:#000000;fill-opacity:1;fill-rule:nonzero;stroke:none"
               id="text44"><tspan
                 x="0 6.72192 11.52576 16.329546 21.133385 24.010353 28.814095 31.216066 36.020008"
                 y="0"
                 sodipodi:role="line"
                 id="tspan40">Generator</tspan><tspan
                 x="-5.7488298 -2.871881 3.3663666 9.6046238 15.842881 18.24477 25.450455 30.254395 35.058372 39.862213 41.789059"
                 y="10.8"
                 sodipodi:role="line"
                 id="tspan42">(RNN Model)</tspan></text>
          </g>
          <path
             d="m 4057.19,31.2109 h 864.02 v 2160 h -864.02 z"
             style="fill:#ffffff;fill-opacity:1;fill-rule:nonzero;stroke:none"
             id="path46" />
          <path
             d="m 4057.19,31.2109 h 864.02 v 2160 h -864.02 z"
             style="fill:none;stroke:#000000;stroke-width:7.2;stroke-linecap:butt;stroke-linejoin:miter;stroke-miterlimit:10;stroke-dasharray:none;stroke-opacity:1"
             id="path48" />
          <g
             id="g50"
             transform="scale(10)">
            <text
               xml:space="preserve"
               transform="matrix(1,0,0,-1,423.349,118.68)"
               style="font-variant:normal;font-weight:normal;font-size:8.64px;font-family:'DejaVu Sans';-inkscape-font-specification:DejaVuSans;writing-mode:lr-tb;fill:#000000;fill-opacity:1;fill-rule:nonzero;stroke:none"
               id="text58"><tspan
                 x="0 6.2381024 8.1563311 12.476276 16.804937 19.681904 21.600134 28.797132 30.715361 35.519146 40.331482 42.733456 47.537392"
                 y="0"
                 sodipodi:role="line"
                 id="tspan52">Discriminator</tspan><tspan
                 x="-11.0477 -8.1707764 -3.8507097 -1.9324809 2.8798547 7.1998005 11.519746 13.437975 15.839894 20.16 22.561918 27.365898 32.169739 36.982117 41.785957 44.662926 49.466667 51.868637 56.672478"
                 y="10.0801"
                 sodipodi:role="line"
                 id="tspan54">(classify generated</tspan><tspan
                 x="-11.767622 -6.9636436 -2.1513081 0.24206699 5.0544028 7.4563227 9.3745518 13.694497 16.096416 18.973385 23.777225 28.580967 30.507788 32.90971 37.713646 40.590614 42.992535 45.394455 50.198196 54.518044 59.321884"
                 y="20.8801"
                 sodipodi:role="line"
                 id="tspan56">data is real or fake)</tspan></text>
            <text
               xml:space="preserve"
               transform="matrix(1,0,0,-1,129.57738,233.1599)"
               style="font-variant:normal;font-size:12.96px;font-family:f-1;-inkscape-font-specification:f-1-0;writing-mode:lr-tb;fill:#000000;fill-opacity:1;fill-rule:nonzero;stroke:none"
               id="text62"><tspan
                 x="0 3.60288 10.80864 18.0144 25.22016"
                 y="0"
                 sodipodi:role="line"
                 id="tspan60">Input</tspan></text>
          </g>
          <path
             d="m 1760.39,2083.2 h 155.74"
             style="fill:none;stroke:#000000;stroke-width:7.2;stroke-linecap:butt;stroke-linejoin:miter;stroke-miterlimit:10;stroke-dasharray:none;stroke-opacity:1"
             id="path64" />
          <path
             d="m 1953.95,2083.2 -50.4,-25.19 12.58,25.19 -12.58,25.2 z"
             style="fill:#000000;fill-opacity:1;fill-rule:nonzero;stroke:none"
             id="path66" />
          <path
             d="m 1953.95,2083.2 -50.4,-25.19 12.58,25.19 -12.58,25.2 z"
             style="fill:none;stroke:#000000;stroke-width:7.2;stroke-linecap:butt;stroke-linejoin:miter;stroke-miterlimit:10;stroke-dasharray:none;stroke-opacity:1"
             id="path68" />
          <path
             d="m 1760.39,1293.63 h 170.16"
             style="fill:none;stroke:#000000;stroke-width:7.2;stroke-linecap:butt;stroke-linejoin:miter;stroke-miterlimit:10;stroke-dasharray:none;stroke-opacity:1"
             id="path70" />
          <path
             d="m 1968.32,1293.63 -50.39,-25.19 12.62,25.19 -12.62,25.24 z"
             style="fill:#000000;fill-opacity:1;fill-rule:nonzero;stroke:none"
             id="path72" />
          <path
             d="m 1968.32,1293.63 -50.39,-25.19 12.62,25.19 -12.62,25.24 z"
             style="fill:none;stroke:#000000;stroke-width:7.2;stroke-linecap:butt;stroke-linejoin:miter;stroke-miterlimit:10;stroke-dasharray:none;stroke-opacity:1"
             id="path74" />
          <path
             d="m 1760.39,901.25 h 170.16"
             style="fill:none;stroke:#000000;stroke-width:7.2;stroke-linecap:butt;stroke-linejoin:miter;stroke-miterlimit:10;stroke-dasharray:none;stroke-opacity:1"
             id="path76" />
          <path
             d="m 1968.32,901.25 -50.39,-25.199 12.62,25.199 -12.62,25.199 z"
             style="fill:#000000;fill-opacity:1;fill-rule:nonzero;stroke:none"
             id="path78" />
          <path
             d="m 1968.32,901.25 -50.39,-25.199 12.62,25.199 -12.62,25.199 z"
             style="fill:none;stroke:#000000;stroke-width:7.2;stroke-linecap:butt;stroke-linejoin:miter;stroke-miterlimit:10;stroke-dasharray:none;stroke-opacity:1"
             id="path80" />
          <path
             d="m 1760.39,253.238 h 170.16"
             style="fill:none;stroke:#000000;stroke-width:7.2;stroke-linecap:butt;stroke-linejoin:miter;stroke-miterlimit:10;stroke-dasharray:none;stroke-opacity:1"
             id="path82" />
          <path
             d="m 1968.32,253.238 -50.39,-25.187 12.62,25.187 -12.62,25.203 z"
             style="fill:#000000;fill-opacity:1;fill-rule:nonzero;stroke:none"
             id="path84" />
          <path
             d="m 1968.32,253.238 -50.39,-25.187 12.62,25.187 -12.62,25.203 z"
             style="fill:none;stroke:#000000;stroke-width:7.2;stroke-linecap:butt;stroke-linejoin:miter;stroke-miterlimit:10;stroke-dasharray:none;stroke-opacity:1"
             id="path86" />
          <path
             d="m 3625.2,1652.66 h 386.13"
             style="fill:none;stroke:#000000;stroke-width:7.2;stroke-linecap:butt;stroke-linejoin:miter;stroke-miterlimit:10;stroke-dasharray:none;stroke-opacity:1"
             id="path88" />
          <path
             d="m 4049.14,1652.66 -50.39,-25.24 12.58,25.24 -12.58,25.19 z"
             style="fill:#000000;fill-opacity:1;fill-rule:nonzero;stroke:none"
             id="path90" />
          <path
             d="m 4049.14,1652.66 -50.39,-25.24 12.58,25.24 -12.58,25.19 z"
             style="fill:none;stroke:#000000;stroke-width:7.2;stroke-linecap:butt;stroke-linejoin:miter;stroke-miterlimit:10;stroke-dasharray:none;stroke-opacity:1"
             id="path92" />
          <path
             d="m 3625.2,644.648 h 386.13"
             style="fill:none;stroke:#000000;stroke-width:7.2;stroke-linecap:butt;stroke-linejoin:miter;stroke-miterlimit:10;stroke-dasharray:none;stroke-opacity:1"
             id="path94" />
          <path
             d="m 4049.14,644.648 -50.39,-25.199 12.58,25.199 -12.58,25.192 z"
             style="fill:#000000;fill-opacity:1;fill-rule:nonzero;stroke:none"
             id="path96" />
          <path
             d="m 4049.14,644.648 -50.39,-25.199 12.58,25.199 -12.58,25.192 z"
             style="fill:none;stroke:#000000;stroke-width:7.2;stroke-linecap:butt;stroke-linejoin:miter;stroke-miterlimit:10;stroke-dasharray:none;stroke-opacity:1"
             id="path98" />
          <g
             id="g100"
             transform="scale(10)">
            <text
               xml:space="preserve"
               transform="matrix(1,0,0,-1,328.871,61.8)"
               style="font-variant:normal;font-weight:normal;font-size:8.64px;font-family:'DejaVu Sans';-inkscape-font-specification:DejaVuSans;writing-mode:lr-tb;fill:#000000;fill-opacity:1;fill-rule:nonzero;stroke:none"
               id="text104"><tspan
                 x="0 4.8038778 7.050324"
                 y="0"
                 sodipodi:role="line"
                 id="tspan102">1|0</tspan></text>
          </g>
          <path
             d="m 4921.21,1658.4 227.74,3.01"
             style="fill:none;stroke:#000000;stroke-width:7.2;stroke-linecap:butt;stroke-linejoin:miter;stroke-miterlimit:10;stroke-dasharray:none;stroke-opacity:1"
             id="path106" />
          <path
             d="m 5186.72,1661.91 -50.04,-25.89 12.27,25.39 -12.9,25 z"
             style="fill:#000000;fill-opacity:1;fill-rule:nonzero;stroke:none"
             id="path108" />
          <path
             d="m 5186.72,1661.91 -50.04,-25.89 12.27,25.39 -12.9,25 z"
             style="fill:none;stroke:#000000;stroke-width:7.2;stroke-linecap:butt;stroke-linejoin:miter;stroke-miterlimit:10;stroke-dasharray:none;stroke-opacity:1"
             id="path110" />
          <path
             d="m 4921.21,643.199 227.74,3.012"
             style="fill:none;stroke:#000000;stroke-width:7.2;stroke-linecap:butt;stroke-linejoin:miter;stroke-miterlimit:10;stroke-dasharray:none;stroke-opacity:1"
             id="path112" />
          <path
             d="m 5186.72,646.719 -50.04,-25.899 12.27,25.391 -12.9,25 z"
             style="fill:#000000;fill-opacity:1;fill-rule:nonzero;stroke:none"
             id="path114" />
          <path
             d="m 5186.72,646.719 -50.04,-25.899 12.27,25.391 -12.9,25 z"
             style="fill:none;stroke:#000000;stroke-width:7.2;stroke-linecap:butt;stroke-linejoin:miter;stroke-miterlimit:10;stroke-dasharray:none;stroke-opacity:1"
             id="path116" />
          <path
             d="m 2836.8,1650.04 227.73,3.05"
             style="fill:none;stroke:#000000;stroke-width:7.2;stroke-linecap:butt;stroke-linejoin:miter;stroke-miterlimit:10;stroke-dasharray:none;stroke-opacity:1"
             id="path118" />
          <path
             d="m 3102.34,1653.59 -50.04,-25.93 12.23,25.43 -12.89,24.96 z"
             style="fill:#000000;fill-opacity:1;fill-rule:nonzero;stroke:none"
             id="path120" />
          <path
             d="m 3102.34,1653.59 -50.04,-25.93 12.23,25.43 -12.89,24.96 z"
             style="fill:none;stroke:#000000;stroke-width:7.2;stroke-linecap:butt;stroke-linejoin:miter;stroke-miterlimit:10;stroke-dasharray:none;stroke-opacity:1"
             id="path122" />
          <path
             d="m 2840.39,641.41 227.73,3"
             style="fill:none;stroke:#000000;stroke-width:7.2;stroke-linecap:butt;stroke-linejoin:miter;stroke-miterlimit:10;stroke-dasharray:none;stroke-opacity:1"
             id="path124" />
          <path
             d="m 3105.94,644.922 -50.04,-25.902 12.22,25.39 -12.89,25 z"
             style="fill:#000000;fill-opacity:1;fill-rule:nonzero;stroke:none"
             id="path126" />
          <path
             d="m 3105.94,644.922 -50.04,-25.902 12.22,25.39 -12.89,25 z"
             style="fill:none;stroke:#000000;stroke-width:7.2;stroke-linecap:butt;stroke-linejoin:miter;stroke-miterlimit:10;stroke-dasharray:none;stroke-opacity:1"
             id="path128" />
          <g
             id="g130"
             transform="scale(10)">
            <text
               xml:space="preserve"
               transform="matrix(1,0,0,-1,0.0898438,205.8)"
               style="font-variant:normal;font-weight:normal;font-size:8.64px;font-family:'DejaVu Sans';-inkscape-font-specification:DejaVuSans;writing-mode:lr-tb;fill:#000000;fill-opacity:1;fill-rule:nonzero;stroke:none"
               id="text144"><tspan
                 x="0 4.3200474 9.1324177 12.000802 16.80467 21.60854 24.010458 28.814327 33.618195 38.422066 43.225933 48.0298 52.833668 57.637535"
                 y="0"
                 sodipodi:role="line"
                 id="tspan132">chr22:24401254</tspan><tspan
                 x="0 4.3200474 9.1324177 12.000802 16.80467 21.60854 24.010458 28.814327 33.618195 38.422066 43.225933 48.0298 52.833668 57.637535"
                 y="36"
                 sodipodi:role="line"
                 id="tspan134">chr22:24401384</tspan><tspan
                 x="0 4.3200474 9.1324177 12.000802 16.80467 21.60854 24.010458 28.814327 33.618195 38.422066 43.225933 48.0298 52.833668 57.637535"
                 y="72"
                 sodipodi:role="line"
                 id="tspan136">chr22:24401385</tspan><tspan
                 x="0 4.3200474 9.1324177 12.000802 16.80467 21.60854 24.010458 28.814327 33.618195 38.422066 43.225933 48.0298 52.833668 57.637535"
                 y="108"
                 sodipodi:role="line"
                 id="tspan138">chr22:24401503</tspan><tspan
                 x="0 4.3200474 9.1324177 12.000802 16.80467 21.60854 24.010458 28.814327 33.618195 38.422066 43.225933 48.0298 52.833668 57.637535"
                 y="144"
                 sodipodi:role="line"
                 id="tspan140">chr22:24401542</tspan><tspan
                 x="0 4.3200474 9.1324177 12.000802 16.80467 21.60854 24.010458 28.814327 33.618195 38.422066 43.225933 48.0298 52.833668 57.637535"
                 y="180"
                 sodipodi:role="line"
                 id="tspan142">chr22:24401570</tspan></text>
            <text
               xml:space="preserve"
               transform="matrix(1,0,0,-1,9.9449238,233.16)"
               style="font-variant:normal;font-size:12.96px;font-family:f-1;-inkscape-font-specification:f-1-0;writing-mode:lr-tb;fill:#000000;fill-opacity:1;fill-rule:nonzero;stroke:none"
               id="text148"><tspan
                 x="0 8.1648445 15.370605 19.686283 22.563404 29.769163 36.974922 299.27237 309.35526 316.561 323.76675 330.97253 335.28821 342.49396 346.09683 353.30261 360.50836 54.472221 63.829342 71.035103 74.637978 81.843742 86.159424 93.365181 100.57094 107.05094"
                 y="0"
                 sodipodi:role="line"
                 id="tspan146">VariantGenerated Reference</tspan></text>
          </g>
          <path
             d="m 691.211,2191.21 h 288.008 v -183.59 c -48.008,38.86 -96.02,38.86 -144.02,0 -48.008,-38.91 -95.98,-38.91 -143.988,0 z"
             style="fill:#ffffff;fill-opacity:1;fill-rule:nonzero;stroke:none"
             id="path150" />
          <path
             d="m 691.211,2191.21 h 288.008 v -183.59 c -48.008,38.86 -96.02,38.86 -144.02,0 -48.008,-38.91 -95.98,-38.91 -143.988,0 z"
             style="fill:none;stroke:#000000;stroke-width:7.2;stroke-linecap:butt;stroke-linejoin:miter;stroke-miterlimit:10;stroke-dasharray:none;stroke-opacity:1"
             id="path152" />
          <g
             id="g154"
             transform="scale(10)">
            <text
               xml:space="preserve"
               transform="matrix(1,0,0,-1,77.5914,208.68)"
               style="font-variant:normal;font-weight:normal;font-size:8.64px;font-family:'DejaVu Sans';-inkscape-font-specification:DejaVuSans;writing-mode:lr-tb;fill:#000000;fill-opacity:1;fill-rule:nonzero;stroke:none"
               id="text158"><tspan
                 x="0 4.8038659 7.0503116"
                 y="0"
                 sodipodi:role="line"
                 id="tspan156">1|0</tspan></text>
          </g>
          <path
             d="m 771.328,1759.22 h 288.012 v -183.63 c -48.01,38.9 -96.02,38.9 -143.988,0 -48.012,-38.87 -96.012,-38.87 -144.024,0 z"
             style="fill:#ffffff;fill-opacity:1;fill-rule:nonzero;stroke:none"
             id="path160" />
          <path
             d="m 771.328,1759.22 h 288.012 v -183.63 c -48.01,38.9 -96.02,38.9 -143.988,0 -48.012,-38.87 -96.012,-38.87 -144.024,0 z"
             style="fill:none;stroke:#000000;stroke-width:7.2;stroke-linecap:butt;stroke-linejoin:miter;stroke-miterlimit:10;stroke-dasharray:none;stroke-opacity:1"
             id="path162" />
          <path
             d="m 699.34,1831.21 h 288 v -183.59 c -48,38.86 -96.012,38.86 -144.02,0 -47.968,-38.91 -95.98,-38.91 -143.98,0 z"
             style="fill:#ffffff;fill-opacity:1;fill-rule:nonzero;stroke:none"
             id="path164" />
          <path
             d="m 699.34,1831.21 h 288 v -183.59 c -48,38.86 -96.012,38.86 -144.02,0 -47.968,-38.91 -95.98,-38.91 -143.98,0 z"
             style="fill:none;stroke:#000000;stroke-width:7.2;stroke-linecap:butt;stroke-linejoin:miter;stroke-miterlimit:10;stroke-dasharray:none;stroke-opacity:1"
             id="path166" />
          <g
             id="g168"
             transform="scale(10)">
            <text
               xml:space="preserve"
               transform="matrix(1,0,0,-1,78.3113,172.68)"
               style="font-variant:normal;font-weight:normal;font-size:8.64px;font-family:'DejaVu Sans';-inkscape-font-specification:DejaVuSans;writing-mode:lr-tb;fill:#000000;fill-opacity:1;fill-rule:nonzero;stroke:none"
               id="text172"><tspan
                 x="0 4.8038659 7.0503116"
                 y="0"
                 sodipodi:role="line"
                 id="tspan170">0|1</tspan></text>
          </g>
          <path
             d="M 770.391,1399.22 H 1058.4 v -183.63 c -48.01,38.9 -96.021,38.9 -143.99,0 -48,-38.87 -96.012,-38.87 -144.019,0 z"
             style="fill:#ffffff;fill-opacity:1;fill-rule:nonzero;stroke:none"
             id="path174" />
          <path
             d="M 770.391,1399.22 H 1058.4 v -183.63 c -48.01,38.9 -96.021,38.9 -143.99,0 -48,-38.87 -96.012,-38.87 -144.019,0 z"
             style="fill:none;stroke:#000000;stroke-width:7.2;stroke-linecap:butt;stroke-linejoin:miter;stroke-miterlimit:10;stroke-dasharray:none;stroke-opacity:1"
             id="path176" />
          <path
             d="M 698.398,1471.21 H 986.41 v -183.59 c -48.012,38.86 -96.019,38.86 -144.031,0 -47.969,-38.91 -95.969,-38.91 -143.981,0 z"
             style="fill:#ffffff;fill-opacity:1;fill-rule:nonzero;stroke:none"
             id="path178" />
          <path
             d="M 698.398,1471.21 H 986.41 v -183.59 c -48.012,38.86 -96.019,38.86 -144.031,0 -47.969,-38.91 -95.969,-38.91 -143.981,0 z"
             style="fill:none;stroke:#000000;stroke-width:7.2;stroke-linecap:butt;stroke-linejoin:miter;stroke-miterlimit:10;stroke-dasharray:none;stroke-opacity:1"
             id="path180" />
          <g
             id="g182"
             transform="scale(10)">
            <text
               xml:space="preserve"
               transform="matrix(1,0,0,-1,78.3113,136.68)"
               style="font-variant:normal;font-weight:normal;font-size:8.64px;font-family:'DejaVu Sans';-inkscape-font-specification:DejaVuSans;writing-mode:lr-tb;fill:#000000;fill-opacity:1;fill-rule:nonzero;stroke:none"
               id="text186"><tspan
                 x="0 4.8038659 7.0503116"
                 y="0"
                 sodipodi:role="line"
                 id="tspan184">1|1</tspan></text>
          </g>
          <path
             d="M 771.328,1006.8 H 1059.34 V 823.199 c -48.01,38.871 -96.02,38.871 -143.988,0 -48.012,-38.859 -96.012,-38.859 -144.024,0 z"
             style="fill:#ffffff;fill-opacity:1;fill-rule:nonzero;stroke:none"
             id="path188" />
          <path
             d="M 771.328,1006.8 H 1059.34 V 823.199 c -48.01,38.871 -96.02,38.871 -143.988,0 -48.012,-38.859 -96.012,-38.859 -144.024,0 z"
             style="fill:none;stroke:#000000;stroke-width:7.2;stroke-linecap:butt;stroke-linejoin:miter;stroke-miterlimit:10;stroke-dasharray:none;stroke-opacity:1"
             id="path190" />
          <path
             d="m 699.34,1078.79 h 288 V 895.199 c -48,38.86 -96.012,38.86 -144.02,0 -47.968,-38.871 -95.98,-38.871 -143.98,0 z"
             style="fill:#ffffff;fill-opacity:1;fill-rule:nonzero;stroke:none"
             id="path192" />
          <path
             d="m 699.34,1078.79 h 288 V 895.199 c -48,38.86 -96.012,38.86 -144.02,0 -47.968,-38.871 -95.98,-38.871 -143.98,0 z"
             style="fill:none;stroke:#000000;stroke-width:7.2;stroke-linecap:butt;stroke-linejoin:miter;stroke-miterlimit:10;stroke-dasharray:none;stroke-opacity:1"
             id="path194" />
          <g
             id="g196"
             transform="scale(10)">
            <text
               xml:space="preserve"
               transform="matrix(1,0,0,-1,78.3113,97.8)"
               style="font-variant:normal;font-weight:normal;font-size:8.64px;font-family:'DejaVu Sans';-inkscape-font-specification:DejaVuSans;writing-mode:lr-tb;fill:#000000;fill-opacity:1;fill-rule:nonzero;stroke:none"
               id="text200"><tspan
                 x="0 4.8038659 7.0503116"
                 y="0"
                 sodipodi:role="line"
                 id="tspan198">0|0</tspan></text>
          </g>
          <path
             d="M 771.328,646.801 H 1059.34 V 463.199 c -48.01,38.871 -96.02,38.871 -143.988,0 -48.012,-38.859 -96.012,-38.859 -144.024,0 z"
             style="fill:#ffffff;fill-opacity:1;fill-rule:nonzero;stroke:none"
             id="path202" />
          <path
             d="M 771.328,646.801 H 1059.34 V 463.199 c -48.01,38.871 -96.02,38.871 -143.988,0 -48.012,-38.859 -96.012,-38.859 -144.024,0 z"
             style="fill:none;stroke:#000000;stroke-width:7.2;stroke-linecap:butt;stroke-linejoin:miter;stroke-miterlimit:10;stroke-dasharray:none;stroke-opacity:1"
             id="path204" />
          <path
             d="m 699.34,718.789 h 288 v -183.59 c -48,38.86 -96.012,38.86 -144.02,0 -47.968,-38.871 -95.98,-38.871 -143.98,0 z"
             style="fill:#ffffff;fill-opacity:1;fill-rule:nonzero;stroke:none"
             id="path206" />
          <path
             d="m 699.34,718.789 h 288 v -183.59 c -48,38.86 -96.012,38.86 -144.02,0 -47.968,-38.871 -95.98,-38.871 -143.98,0 z"
             style="fill:none;stroke:#000000;stroke-width:7.2;stroke-linecap:butt;stroke-linejoin:miter;stroke-miterlimit:10;stroke-dasharray:none;stroke-opacity:1"
             id="path208" />
          <g
             id="g210"
             transform="scale(10)">
            <text
               xml:space="preserve"
               transform="matrix(1,0,0,-1,78.3113,61.8)"
               style="font-variant:normal;font-weight:normal;font-size:8.64px;font-family:'DejaVu Sans';-inkscape-font-specification:DejaVuSans;writing-mode:lr-tb;fill:#000000;fill-opacity:1;fill-rule:nonzero;stroke:none"
               id="text214"><tspan
                 x="0 4.8038659 7.0503116"
                 y="0"
                 sodipodi:role="line"
                 id="tspan212">0|1</tspan></text>
          </g>
          <path
             d="M 771.328,286.801 H 1059.34 V 103.199 c -48.01,38.871 -96.02,38.871 -143.988,0 -48.012,-38.8592 -96.012,-38.8592 -144.024,0 z"
             style="fill:#ffffff;fill-opacity:1;fill-rule:nonzero;stroke:none"
             id="path216" />
          <path
             d="M 771.328,286.801 H 1059.34 V 103.199 c -48.01,38.871 -96.02,38.871 -143.988,0 -48.012,-38.8592 -96.012,-38.8592 -144.024,0 z"
             style="fill:none;stroke:#000000;stroke-width:7.2;stroke-linecap:butt;stroke-linejoin:miter;stroke-miterlimit:10;stroke-dasharray:none;stroke-opacity:1"
             id="path218" />
          <path
             d="m 699.34,358.789 h 288 v -183.59 c -48,38.86 -96.012,38.86 -144.02,0 -47.968,-38.867 -95.98,-38.867 -143.98,0 z"
             style="fill:#ffffff;fill-opacity:1;fill-rule:nonzero;stroke:none"
             id="path220" />
          <path
             d="m 699.34,358.789 h 288 v -183.59 c -48,38.86 -96.012,38.86 -144.02,0 -47.968,-38.867 -95.98,-38.867 -143.98,0 z"
             style="fill:none;stroke:#000000;stroke-width:7.2;stroke-linecap:butt;stroke-linejoin:miter;stroke-miterlimit:10;stroke-dasharray:none;stroke-opacity:1"
             id="path222" />
          <g
             id="g224"
             transform="scale(10)">
            <text
               xml:space="preserve"
               transform="matrix(1,0,0,-1,78.3113,25.8)"
               style="font-variant:normal;font-weight:normal;font-size:8.64px;font-family:'DejaVu Sans';-inkscape-font-specification:DejaVuSans;writing-mode:lr-tb;fill:#000000;fill-opacity:1;fill-rule:nonzero;stroke:none"
               id="text228"><tspan
                 x="0 4.8038659 7.0503116"
                 y="0"
                 sodipodi:role="line"
                 id="tspan226">1|0</tspan></text>
          </g>
          <path
             d="m 1263.59,2119.22 h 288.01 v -183.63 c -48.01,38.9 -96.01,38.9 -143.98,0 -48.01,-38.87 -96.02,-38.87 -144.03,0 z"
             style="fill:#ffffff;fill-opacity:1;fill-rule:nonzero;stroke:none"
             id="path230" />
          <path
             d="m 1263.59,2119.22 h 288.01 v -183.63 c -48.01,38.9 -96.01,38.9 -143.98,0 -48.01,-38.87 -96.02,-38.87 -144.03,0 z"
             style="fill:none;stroke:#000000;stroke-width:7.2;stroke-linecap:butt;stroke-linejoin:miter;stroke-miterlimit:10;stroke-dasharray:none;stroke-opacity:1"
             id="path232" />
          <path
             d="m 1191.6,2191.21 h 288.01 v -183.59 c -48.01,38.86 -96.02,38.86 -144.02,0 -47.97,-38.91 -95.98,-38.91 -143.99,0 z"
             style="fill:#ffffff;fill-opacity:1;fill-rule:nonzero;stroke:none"
             id="path234" />
          <path
             d="m 1191.6,2191.21 h 288.01 v -183.59 c -48.01,38.86 -96.02,38.86 -144.02,0 -47.97,-38.91 -95.98,-38.91 -143.99,0 z"
             style="fill:none;stroke:#000000;stroke-width:7.2;stroke-linecap:butt;stroke-linejoin:miter;stroke-miterlimit:10;stroke-dasharray:none;stroke-opacity:1"
             id="path236" />
          <g
             id="g238"
             transform="scale(10)">
            <text
               xml:space="preserve"
               transform="matrix(1,0,0,-1,127.271,208.68)"
               style="font-variant:normal;font-weight:normal;font-size:8.64px;font-family:'DejaVu Sans';-inkscape-font-specification:DejaVuSans;writing-mode:lr-tb;fill:#000000;fill-opacity:1;fill-rule:nonzero;stroke:none"
               id="text242"><tspan
                 x="0 4.8038659 7.0503116"
                 y="0"
                 sodipodi:role="line"
                 id="tspan240">1|0</tspan></text>
          </g>
          <path
             d="m 1271.72,1759.22 h 288.01 v -183.63 c -48.01,38.9 -95.98,38.9 -143.99,0 -48.01,-38.87 -96.01,-38.87 -144.02,0 z"
             style="fill:#ffffff;fill-opacity:1;fill-rule:nonzero;stroke:none"
             id="path244" />
          <path
             d="m 1271.72,1759.22 h 288.01 v -183.63 c -48.01,38.9 -95.98,38.9 -143.99,0 -48.01,-38.87 -96.01,-38.87 -144.02,0 z"
             style="fill:none;stroke:#000000;stroke-width:7.2;stroke-linecap:butt;stroke-linejoin:miter;stroke-miterlimit:10;stroke-dasharray:none;stroke-opacity:1"
             id="path246" />
          <path
             d="m 1199.73,1831.21 h 288 v -183.59 c -48,38.86 -96.01,38.86 -143.98,0 -48.01,-38.91 -96.02,-38.91 -144.02,0 z"
             style="fill:#ffffff;fill-opacity:1;fill-rule:nonzero;stroke:none"
             id="path248" />
          <path
             d="m 1199.73,1831.21 h 288 v -183.59 c -48,38.86 -96.01,38.86 -143.98,0 -48.01,-38.91 -96.02,-38.91 -144.02,0 z"
             style="fill:none;stroke:#000000;stroke-width:7.2;stroke-linecap:butt;stroke-linejoin:miter;stroke-miterlimit:10;stroke-dasharray:none;stroke-opacity:1"
             id="path250" />
          <g
             id="g252"
             transform="scale(10)">
            <text
               xml:space="preserve"
               transform="matrix(1,0,0,-1,127.991,172.68)"
               style="font-variant:normal;font-weight:normal;font-size:8.64px;font-family:'DejaVu Sans';-inkscape-font-specification:DejaVuSans;writing-mode:lr-tb;fill:#000000;fill-opacity:1;fill-rule:nonzero;stroke:none"
               id="text256"><tspan
                 x="0 4.8040147 7.0504603"
                 y="0"
                 sodipodi:role="line"
                 id="tspan254">?|?</tspan></text>
          </g>
          <path
             d="m 1270.78,1399.22 h 288.01 v -183.63 c -48.01,38.9 -95.98,38.9 -143.99,0 -48,-38.87 -96.01,-38.87 -144.02,0 z"
             style="fill:#ffffff;fill-opacity:1;fill-rule:nonzero;stroke:none"
             id="path258" />
          <path
             d="m 1270.78,1399.22 h 288.01 v -183.63 c -48.01,38.9 -95.98,38.9 -143.99,0 -48,-38.87 -96.01,-38.87 -144.02,0 z"
             style="fill:none;stroke:#000000;stroke-width:7.2;stroke-linecap:butt;stroke-linejoin:miter;stroke-miterlimit:10;stroke-dasharray:none;stroke-opacity:1"
             id="path260" />
          <path
             d="m 1198.79,1471.21 h 288.01 v -183.59 c -48.01,38.86 -96.02,38.86 -143.99,0 -48.01,-38.91 -96.01,-38.91 -144.02,0 z"
             style="fill:#ffffff;fill-opacity:1;fill-rule:nonzero;stroke:none"
             id="path262" />
          <path
             d="m 1198.79,1471.21 h 288.01 v -183.59 c -48.01,38.86 -96.02,38.86 -143.99,0 -48.01,-38.91 -96.01,-38.91 -144.02,0 z"
             style="fill:none;stroke:#000000;stroke-width:7.2;stroke-linecap:butt;stroke-linejoin:miter;stroke-miterlimit:10;stroke-dasharray:none;stroke-opacity:1"
             id="path264" />
          <g
             id="g266"
             transform="scale(10)">
            <text
               xml:space="preserve"
               transform="matrix(1,0,0,-1,127.991,136.68)"
               style="font-variant:normal;font-weight:normal;font-size:8.64px;font-family:'DejaVu Sans';-inkscape-font-specification:DejaVuSans;writing-mode:lr-tb;fill:#000000;fill-opacity:1;fill-rule:nonzero;stroke:none"
               id="text270"><tspan
                 x="0 4.8038659 7.0503116"
                 y="0"
                 sodipodi:role="line"
                 id="tspan268">1|1</tspan></text>
          </g>
          <path
             d="m 1271.72,1006.8 h 288.01 V 823.199 c -48.01,38.871 -95.98,38.871 -143.99,0 -48.01,-38.859 -96.01,-38.859 -144.02,0 z"
             style="fill:#ffffff;fill-opacity:1;fill-rule:nonzero;stroke:none"
             id="path272" />
          <path
             d="m 1271.72,1006.8 h 288.01 V 823.199 c -48.01,38.871 -95.98,38.871 -143.99,0 -48.01,-38.859 -96.01,-38.859 -144.02,0 z"
             style="fill:none;stroke:#000000;stroke-width:7.2;stroke-linecap:butt;stroke-linejoin:miter;stroke-miterlimit:10;stroke-dasharray:none;stroke-opacity:1"
             id="path274" />
          <path
             d="m 1199.73,1078.79 h 288 V 895.199 c -48,38.86 -96.01,38.86 -143.98,0 -48.01,-38.871 -96.02,-38.871 -144.02,0 z"
             style="fill:#ffffff;fill-opacity:1;fill-rule:nonzero;stroke:none"
             id="path276" />
          <path
             d="m 1199.73,1078.79 h 288 V 895.199 c -48,38.86 -96.01,38.86 -143.98,0 -48.01,-38.871 -96.02,-38.871 -144.02,0 z"
             style="fill:none;stroke:#000000;stroke-width:7.2;stroke-linecap:butt;stroke-linejoin:miter;stroke-miterlimit:10;stroke-dasharray:none;stroke-opacity:1"
             id="path278" />
          <g
             id="g280"
             transform="scale(10)">
            <text
               xml:space="preserve"
               transform="matrix(1,0,0,-1,127.991,97.8)"
               style="font-variant:normal;font-weight:normal;font-size:8.64px;font-family:'DejaVu Sans';-inkscape-font-specification:DejaVuSans;writing-mode:lr-tb;fill:#000000;fill-opacity:1;fill-rule:nonzero;stroke:none"
               id="text284"><tspan
                 x="0 4.8038659 7.0503116"
                 y="0"
                 sodipodi:role="line"
                 id="tspan282">0|0</tspan></text>
          </g>
          <path
             d="m 1271.72,646.801 h 288.01 V 463.199 c -48.01,38.871 -95.98,38.871 -143.99,0 -48.01,-38.859 -96.01,-38.859 -144.02,0 z"
             style="fill:#ffffff;fill-opacity:1;fill-rule:nonzero;stroke:none"
             id="path286" />
          <path
             d="m 1271.72,646.801 h 288.01 V 463.199 c -48.01,38.871 -95.98,38.871 -143.99,0 -48.01,-38.859 -96.01,-38.859 -144.02,0 z"
             style="fill:none;stroke:#000000;stroke-width:7.2;stroke-linecap:butt;stroke-linejoin:miter;stroke-miterlimit:10;stroke-dasharray:none;stroke-opacity:1"
             id="path288" />
          <path
             d="m 1199.73,718.789 h 288 v -183.59 c -48,38.86 -96.01,38.86 -143.98,0 -48.01,-38.871 -96.02,-38.871 -144.02,0 z"
             style="fill:#ffffff;fill-opacity:1;fill-rule:nonzero;stroke:none"
             id="path290" />
          <path
             d="m 1199.73,718.789 h 288 v -183.59 c -48,38.86 -96.01,38.86 -143.98,0 -48.01,-38.871 -96.02,-38.871 -144.02,0 z"
             style="fill:none;stroke:#000000;stroke-width:7.2;stroke-linecap:butt;stroke-linejoin:miter;stroke-miterlimit:10;stroke-dasharray:none;stroke-opacity:1"
             id="path292" />
          <g
             id="g294"
             transform="scale(10)">
            <text
               xml:space="preserve"
               transform="matrix(1,0,0,-1,127.991,61.8)"
               style="font-variant:normal;font-weight:normal;font-size:8.64px;font-family:'DejaVu Sans';-inkscape-font-specification:DejaVuSans;writing-mode:lr-tb;fill:#000000;fill-opacity:1;fill-rule:nonzero;stroke:none"
               id="text298"><tspan
                 x="0 4.8040147 7.0504603"
                 y="0"
                 sodipodi:role="line"
                 id="tspan296">?|?</tspan></text>
          </g>
          <path
             d="m 1271.72,286.801 h 288.01 V 103.199 c -48.01,38.871 -95.98,38.871 -143.99,0 -48.01,-38.8592 -96.01,-38.8592 -144.02,0 z"
             style="fill:#ffffff;fill-opacity:1;fill-rule:nonzero;stroke:none"
             id="path300" />
          <path
             d="m 1271.72,286.801 h 288.01 V 103.199 c -48.01,38.871 -95.98,38.871 -143.99,0 -48.01,-38.8592 -96.01,-38.8592 -144.02,0 z"
             style="fill:none;stroke:#000000;stroke-width:7.2;stroke-linecap:butt;stroke-linejoin:miter;stroke-miterlimit:10;stroke-dasharray:none;stroke-opacity:1"
             id="path302" />
          <path
             d="m 1199.73,358.789 h 288 v -183.59 c -48,38.86 -96.01,38.86 -143.98,0 -48.01,-38.867 -96.02,-38.867 -144.02,0 z"
             style="fill:#ffffff;fill-opacity:1;fill-rule:nonzero;stroke:none"
             id="path304" />
          <path
             d="m 1199.73,358.789 h 288 v -183.59 c -48,38.86 -96.01,38.86 -143.98,0 -48.01,-38.867 -96.02,-38.867 -144.02,0 z"
             style="fill:none;stroke:#000000;stroke-width:7.2;stroke-linecap:butt;stroke-linejoin:miter;stroke-miterlimit:10;stroke-dasharray:none;stroke-opacity:1"
             id="path306" />
          <g
             id="g308"
             transform="scale(10)">
            <text
               xml:space="preserve"
               transform="matrix(1,0,0,-1,127.991,25.8)"
               style="font-variant:normal;font-weight:normal;font-size:8.64px;font-family:'DejaVu Sans';-inkscape-font-specification:DejaVuSans;writing-mode:lr-tb;fill:#000000;fill-opacity:1;fill-rule:nonzero;stroke:none"
               id="text312"><tspan
                 x="0 4.8038659 7.0503116"
                 y="0"
                 sodipodi:role="line"
                 id="tspan310">1|0</tspan></text>
          </g>
          <path
             d="m 3272.38,682.809 h 288.01 v -183.59 c -48.01,38.871 -95.98,38.871 -143.98,0 -48.01,-38.91 -96.02,-38.91 -144.03,0 z"
             style="fill:#ffffff;fill-opacity:1;fill-rule:nonzero;stroke:none"
             id="path314" />
          <path
             d="m 3272.38,682.809 h 288.01 v -183.59 c -48.01,38.871 -95.98,38.871 -143.98,0 -48.01,-38.91 -96.02,-38.91 -144.03,0 z"
             style="fill:none;stroke:#000000;stroke-width:7.2;stroke-linecap:butt;stroke-linejoin:miter;stroke-miterlimit:10;stroke-dasharray:none;stroke-opacity:1"
             id="path316" />
          <path
             d="m 3200.39,754.801 h 288.01 v -183.59 c -48.01,38.867 -96.02,38.867 -143.99,0 -48,-38.91 -96.01,-38.91 -144.02,0 z"
             style="fill:#ffffff;fill-opacity:1;fill-rule:nonzero;stroke:none"
             id="path318" />
          <path
             d="m 3200.39,754.801 h 288.01 v -183.59 c -48.01,38.867 -96.02,38.867 -143.99,0 -48,-38.91 -96.01,-38.91 -144.02,0 z"
             style="fill:none;stroke:#000000;stroke-width:7.2;stroke-linecap:butt;stroke-linejoin:miter;stroke-miterlimit:10;stroke-dasharray:none;stroke-opacity:1"
             id="path320" />
          <g
             id="g322"
             transform="scale(10)">
            <text
               xml:space="preserve"
               transform="matrix(1,0,0,-1,328.151,65.4)"
               style="font-variant:normal;font-weight:normal;font-size:8.64px;font-family:'DejaVu Sans';-inkscape-font-specification:DejaVuSans;writing-mode:lr-tb;fill:#000000;fill-opacity:1;fill-rule:nonzero;stroke:none"
               id="text326"><tspan
                 x="0 4.8038778 7.050324"
                 y="0"
                 sodipodi:role="line"
                 id="tspan324">1|1</tspan></text>
          </g>
          <path
             d="m 3272.38,1694.41 h 288.01 v -183.63 c -48.01,38.91 -95.98,38.91 -143.98,0 -48.01,-38.87 -96.02,-38.87 -144.03,0 z"
             style="fill:#ffffff;fill-opacity:1;fill-rule:nonzero;stroke:none"
             id="path328" />
          <path
             d="m 3272.38,1694.41 h 288.01 v -183.63 c -48.01,38.91 -95.98,38.91 -143.98,0 -48.01,-38.87 -96.02,-38.87 -144.03,0 z"
             style="fill:none;stroke:#000000;stroke-width:7.2;stroke-linecap:butt;stroke-linejoin:miter;stroke-miterlimit:10;stroke-dasharray:none;stroke-opacity:1"
             id="path330" />
          <path
             d="m 3200.39,1759.22 h 288.01 v -183.63 c -48.01,38.9 -96.02,38.9 -143.99,0 -48,-38.87 -96.01,-38.87 -144.02,0 z"
             style="fill:#ffffff;fill-opacity:1;fill-rule:nonzero;stroke:none"
             id="path332" />
          <path
             d="m 3200.39,1759.22 h 288.01 v -183.63 c -48.01,38.9 -96.02,38.9 -143.99,0 -48,-38.87 -96.01,-38.87 -144.02,0 z"
             style="fill:none;stroke:#000000;stroke-width:7.2;stroke-linecap:butt;stroke-linejoin:miter;stroke-miterlimit:10;stroke-dasharray:none;stroke-opacity:1"
             id="path334" />
          <g
             id="g336"
             transform="scale(10)">
            <text
               xml:space="preserve"
               transform="matrix(1,0,0,-1,328.151,165.48)"
               style="font-variant:normal;font-weight:normal;font-size:8.64px;font-family:'DejaVu Sans';-inkscape-font-specification:DejaVuSans;writing-mode:lr-tb;fill:#000000;fill-opacity:1;fill-rule:nonzero;stroke:none"
               id="text340"><tspan
                 x="0 4.8038778 7.050324"
                 y="0"
                 sodipodi:role="line"
                 id="tspan338">0|1</tspan></text>
          </g>
          <path
             d="m 5245.2,1543.2 h 431.992 v 216.02 H 5245.2 Z"
             style="fill:#ffffff;fill-opacity:1;fill-rule:nonzero;stroke:none"
             id="path342" />
          <path
             d="m 5245.2,1543.2 h 431.992 v 216.02 H 5245.2 Z"
             style="fill:none;stroke:#000000;stroke-width:7.2;stroke-linecap:butt;stroke-linejoin:miter;stroke-miterlimit:10;stroke-dasharray:none;stroke-opacity:1"
             id="path344" />
          <g
             id="g346"
             transform="scale(10)">
            <text
               xml:space="preserve"
               transform="matrix(1,0,0,-1,536.873,162.6)"
               style="font-variant:normal;font-weight:normal;font-size:8.64px;font-family:'DejaVu Sans';-inkscape-font-specification:DejaVuSans;writing-mode:lr-tb;fill:#000000;fill-opacity:1;fill-rule:nonzero;stroke:none"
               id="text350"><tspan
                 x="0 6.2382474 11.042088 15.854424"
                 y="0"
                 sodipodi:role="line"
                 id="tspan348">Real</tspan></text>
          </g>
          <path
             d="m 5317.19,463.199 h 432.027 v 216.02 H 5317.19 Z"
             style="fill:none;stroke:#000000;stroke-width:7.2;stroke-linecap:butt;stroke-linejoin:miter;stroke-miterlimit:10;stroke-dasharray:none;stroke-opacity:1"
             id="path352" />
          <g
             id="g354"
             transform="scale(10)">
            <text
               xml:space="preserve"
               transform="matrix(1,0,0,-1,544.073,54.6)"
               style="font-variant:normal;font-weight:normal;font-size:8.64px;font-family:'DejaVu Sans';-inkscape-font-specification:DejaVuSans;writing-mode:lr-tb;fill:#000000;fill-opacity:1;fill-rule:nonzero;stroke:none"
               id="text358"><tspan
                 x="0 6.2382474 11.042088 15.854424"
                 y="0"
                 sodipodi:role="line"
                 id="tspan356">Real</tspan></text>
          </g>
          <path
             d="m 5245.2,535.191 h 431.992 v 216.02 H 5245.2 Z"
             style="fill:#ffffff;fill-opacity:1;fill-rule:nonzero;stroke:none"
             id="path360" />
          <path
             d="m 5245.2,535.191 h 431.992 v 216.02 H 5245.2 Z"
             style="fill:none;stroke:#000000;stroke-width:7.2;stroke-linecap:butt;stroke-linejoin:miter;stroke-miterlimit:10;stroke-dasharray:none;stroke-opacity:1"
             id="path362" />
          <g
             id="g364"
             transform="scale(10)">
            <text
               xml:space="preserve"
               transform="matrix(1,0,0,-1,536.152,61.8)"
               style="font-variant:normal;font-weight:normal;font-size:8.64px;font-family:'DejaVu Sans';-inkscape-font-specification:DejaVuSans;writing-mode:lr-tb;fill:#000000;fill-opacity:1;fill-rule:nonzero;stroke:none"
               id="text368"><tspan
                 x="0 5.2791815 10.082923 14.402768"
                 y="0"
                 sodipodi:role="line"
                 id="tspan366">Fake</tspan></text>
          </g>
        </g>
      </g>
    </g>
  </g>
</svg>
